<svg version="1.1" xmlns="http://www.w3.org/2000/svg" xmlns:xlink="http://www.w3.org/1999/xlink" width="1140" height="436"><defs/><g><g transform="translate(-198,-182) scale(1,1)"><rect fill="#C0C0C0" stroke="none" x="215" y="231" width="253.58154296875" height="145" opacity="0.2"/></g><g transform="translate(-198,-182) scale(1,1)"><rect fill="#ffffff" stroke="none" x="208" y="224" width="253.58154296875" height="145"/></g><g transform="translate(-198,-182) scale(1,1)"><path fill="none" stroke="#000000" d="M 208 224 L 461.58154296875 224 L 461.58154296875 369 L 208 369 L 208 224 Z Z" stroke-miterlimit="10"/></g><g transform="translate(-198,-182) scale(1,1)"><path fill="none" stroke="#000000" d="M 208 249 L 461.58154296875 249" stroke-miterlimit="10"/></g><g transform="translate(-198,-182) scale(1,1)"><path fill="none" stroke="#000000" d="M 208 302 L 461.58154296875 302" stroke-miterlimit="10"/></g><g transform="translate(-198,-182) scale(1,1)"><g><path fill="none" stroke="none"/><text fill="#000000" stroke="none" font-family="Arial" font-size="13px" font-style="normal" font-weight="bold" text-decoration="none" x="317.810791015625" y="243.5">Frage</text></g></g><g transform="translate(-198,-182) scale(1,1)"><g><path fill="none" stroke="none"/><text fill="#000000" stroke="none" font-family="Arial" font-size="13px" font-style="normal" font-weight="normal" text-decoration="none" x="213" y="266.5">-text: String</text></g></g><g transform="translate(-198,-182) scale(1,1)"><g><path fill="none" stroke="none"/><text fill="#000000" stroke="none" font-family="Arial" font-size="13px" font-style="normal" font-weight="normal" text-decoration="none" x="213" y="281.5">-antworten: String_Array</text></g></g><g transform="translate(-198,-182) scale(1,1)"><g><path fill="none" stroke="none"/><text fill="#000000" stroke="none" font-family="Arial" font-size="13px" font-style="normal" font-weight="normal" text-decoration="none" x="213" y="296.5">-richtigeAntwort: Integer</text></g></g><g transform="translate(-198,-182) scale(1,1)"><g><path fill="none" stroke="none"/><text fill="#000000" stroke="none" font-family="Arial" font-size="13px" font-style="normal" font-weight="normal" text-decoration="none" x="213" y="319.5">+parseFrage(String): Bool</text></g></g><g transform="translate(-198,-182) scale(1,1)"><g><path fill="none" stroke="none"/><text fill="#000000" stroke="none" font-family="Arial" font-size="13px" font-style="normal" font-weight="normal" text-decoration="none" x="213" y="334.5">+getText(): String</text></g></g><g transform="translate(-198,-182) scale(1,1)"><g><path fill="none" stroke="none"/><text fill="#000000" stroke="none" font-family="Arial" font-size="13px" font-style="normal" font-weight="normal" text-decoration="none" x="213" y="349.5">+getAntwortMoeglichkeiten(): String_Array</text></g></g><g transform="translate(-198,-182) scale(1,1)"><g><path fill="none" stroke="none"/><text fill="#000000" stroke="none" font-family="Arial" font-size="13px" font-style="normal" font-weight="normal" text-decoration="none" x="213" y="364.5">+compareAntwort(Char): Bool</text></g></g><g transform="translate(-198,-182) scale(1,1)"><rect fill="#C0C0C0" stroke="none" x="591" y="199" width="256" height="205" opacity="0.2"/></g><g transform="translate(-198,-182) scale(1,1)"><rect fill="#ffffff" stroke="none" x="584" y="192" width="256" height="205"/></g><g transform="translate(-198,-182) scale(1,1)"><path fill="none" stroke="#000000" d="M 584 192 L 840 192 L 840 397 L 584 397 L 584 192 Z Z" stroke-miterlimit="10"/></g><g transform="translate(-198,-182) scale(1,1)"><path fill="none" stroke="#000000" d="M 584 217 L 840 217" stroke-miterlimit="10"/></g><g transform="translate(-198,-182) scale(1,1)"><path fill="none" stroke="#000000" d="M 584 270 L 840 270" stroke-miterlimit="10"/></g><g transform="translate(-198,-182) scale(1,1)"><g><path fill="none" stroke="none"/><text fill="#000000" stroke="none" font-family="Arial" font-size="13px" font-style="normal" font-weight="bold" text-decoration="none" x="697.54638671875" y="211.5">Spiel</text></g></g><g transform="translate(-198,-182) scale(1,1)"><g><path fill="none" stroke="none"/><text fill="#000000" stroke="none" font-family="Arial" font-size="13px" font-style="normal" font-weight="normal" text-decoration="none" x="589" y="234.5">-fragen: Frage_Array</text></g></g><g transform="translate(-198,-182) scale(1,1)"><g><path fill="none" stroke="none"/><text fill="#000000" stroke="none" font-family="Arial" font-size="13px" font-style="normal" font-weight="normal" text-decoration="none" x="589" y="249.5">-geld: Double</text></g></g><g transform="translate(-198,-182) scale(1,1)"><g><path fill="none" stroke="none"/><text fill="#000000" stroke="none" font-family="Arial" font-size="13px" font-style="normal" font-weight="normal" text-decoration="none" x="589" y="264.5">-currentSicherheitsstufe: Integer</text></g></g><g transform="translate(-198,-182) scale(1,1)"><g><path fill="none" stroke="none"/><text fill="#000000" stroke="none" font-family="Arial" font-size="13px" font-style="normal" font-weight="normal" text-decoration="none" x="589" y="287.5">+startGame(): void</text></g></g><g transform="translate(-198,-182) scale(1,1)"><g><path fill="none" stroke="none"/><text fill="#000000" stroke="none" font-family="Arial" font-size="13px" font-style="normal" font-weight="normal" text-decoration="none" x="589" y="302.5">-loadFragen(Pfad: String): Fragen_Array</text></g></g><g transform="translate(-198,-182) scale(1,1)"><g><path fill="none" stroke="none"/><text fill="#000000" stroke="none" font-family="Arial" font-size="13px" font-style="normal" font-weight="normal" text-decoration="none" x="589" y="317.5">-useFiftyFifty(Frage): Integer_Array</text></g></g><g transform="translate(-198,-182) scale(1,1)"><g><path fill="none" stroke="none"/><text fill="#000000" stroke="none" font-family="Arial" font-size="13px" font-style="normal" font-weight="normal" text-decoration="none" x="589" y="332.5">-usePublikum(Frage): void</text></g></g><g transform="translate(-198,-182) scale(1,1)"><g><path fill="none" stroke="none"/><text fill="#000000" stroke="none" font-family="Arial" font-size="13px" font-style="normal" font-weight="normal" text-decoration="none" x="589" y="347.5">-usePhone(Frage): Integer</text></g></g><g transform="translate(-198,-182) scale(1,1)"><g><path fill="none" stroke="none"/><text fill="#000000" stroke="none" font-family="Arial" font-size="13px" font-style="normal" font-weight="normal" text-decoration="none" x="589" y="362.5">-cashMeOutside(): void</text></g></g><g transform="translate(-198,-182) scale(1,1)"><g><path fill="none" stroke="none"/><text fill="#000000" stroke="none" font-family="Arial" font-size="13px" font-style="normal" font-weight="normal" text-decoration="none" x="589" y="377.5">-playerWon(): void</text></g></g><g transform="translate(-198,-182) scale(1,1)"><g><path fill="none" stroke="none"/><text fill="#000000" stroke="none" font-family="Arial" font-size="13px" font-style="normal" font-weight="normal" text-decoration="none" x="589" y="392.5">-playerLost(): void</text></g></g><g transform="translate(-198,-182) scale(1,1)"><path fill="#ffffff" stroke="none" d="M 464 424 L 1317 424 L 1327 434 L 1327 607 L 464 607 L 464 424"/></g><g transform="translate(-198,-182) scale(1,1)"><path fill="none" stroke="#000000" d="M 464 424 L 1317 424 L 1327 434 L 1327 607 L 464 607 L 464 424 L 464 424" stroke-miterlimit="10"/></g><g transform="translate(-198,-182) scale(1,1)"><path fill="none" stroke="#000000" d="M 1317 424 L 1317 434 L 1327 434 L 1317 424" stroke-miterlimit="10"/></g><g transform="translate(-198,-182) scale(1,1)"><g><path fill="none" stroke="none"/><text fill="#000000" stroke="none" font-family="Arial" font-size="13px" font-style="normal" font-weight="normal" text-decoration="none" x="469" y="442">Spiel ist das Hauptprogramm</text></g></g><g transform="translate(-198,-182) scale(1,1)"><g><path fill="none" stroke="none"/></g></g><g transform="translate(-198,-182) scale(1,1)"><g><path fill="none" stroke="none"/><text fill="#000000" stroke="none" font-family="Arial" font-size="13px" font-style="normal" font-weight="normal" text-decoration="none" x="469" y="459">Geld kann auch als Integer angezeigt werden, da man keine Cent beträge gewinnen kann</text></g></g><g transform="translate(-198,-182) scale(1,1)"><g><path fill="none" stroke="none"/></g></g><g transform="translate(-198,-182) scale(1,1)"><g><path fill="none" stroke="none"/><text fill="#000000" stroke="none" font-family="Arial" font-size="13px" font-style="normal" font-weight="normal" text-decoration="none" x="469" y="476">Gleiche gilt für currentSicherheitsstufe</text></g></g><g transform="translate(-198,-182) scale(1,1)"><g><path fill="none" stroke="none"/></g></g><g transform="translate(-198,-182) scale(1,1)"><g><path fill="none" stroke="none"/><text fill="#000000" stroke="none" font-family="Arial" font-size="13px" font-style="normal" font-weight="normal" text-decoration="none" x="469" y="493">Ich weiß nicht ob du die Joker einbauen willst aber:</text></g></g><g transform="translate(-198,-182) scale(1,1)"><g><path fill="none" stroke="none"/><text fill="#000000" stroke="none" font-family="Arial" font-size="13px" font-style="normal" font-weight="normal" text-decoration="none" x="469" y="508">    FiftyFifty wäre noch recht einfach einfach 2 zufällige wegstreichen bei denen es sich nicht   um die richtige handelt</text></g></g><g transform="translate(-198,-182) scale(1,1)"><g><path fill="none" stroke="none"/></g></g><g transform="translate(-198,-182) scale(1,1)"><g><path fill="none" stroke="none"/><text fill="#000000" stroke="none" font-family="Arial" font-size="13px" font-style="normal" font-weight="normal" text-decoration="none" x="469" y="525">    Publikum hätte ich einfach random mit Tendenz zum richtigen und dann das ganze einfach wie in deinen Anforderungen als Diagramm darstellen</text></g></g><g transform="translate(-198,-182) scale(1,1)"><g><path fill="none" stroke="none"/></g></g><g transform="translate(-198,-182) scale(1,1)"><g><path fill="none" stroke="none"/><text fill="#000000" stroke="none" font-family="Arial" font-size="13px" font-style="normal" font-weight="normal" text-decoration="none" x="469" y="542">    Phone hätte ich einfach eines Random genommen ^^</text></g></g><g transform="translate(-198,-182) scale(1,1)"><g><path fill="none" stroke="none"/></g></g><g transform="translate(-198,-182) scale(1,1)"><g><path fill="none" stroke="none"/></g></g><g transform="translate(-198,-182) scale(1,1)"><g><path fill="none" stroke="none"/><text fill="#000000" stroke="none" font-family="Arial" font-size="13px" font-style="normal" font-weight="normal" text-decoration="none" x="469" y="561"> </text></g></g><g transform="translate(-198,-182) scale(1,1)"><path fill="none" stroke="#000000" d="M 798 398 L 819 423" stroke-miterlimit="10" stroke-dasharray="3"/></g><g transform="translate(-198,-182) scale(1,1)"><path fill="none" stroke="#000000" d="M 463 295 L 583 295" stroke-miterlimit="10"/></g><g transform="translate(-198,-182) scale(1,1)"><path fill="#000000" stroke="none" d="M 572.8373251423759 299.209517756016 L 583 295 L 572.8373251423758 290.790482243984 L 561 295"/></g><g transform="translate(-198,-182) scale(1,1)"><path fill="none" stroke="#000000" d="M 572.8373251423759 299.209517756016 L 583 295 L 572.8373251423758 290.790482243984 L 561 295 L 572.8373251423759 299.209517756016" stroke-miterlimit="10"/></g><g transform="translate(-198,-182) scale(1,1)"><g><path fill="none" stroke="none"/><text fill="#000000" stroke="none" font-family="Arial" font-size="13px" font-style="normal" font-weight="normal" text-decoration="none" x="473.74365234375" y="313.5">1..*</text></g></g><g transform="translate(-198,-182) scale(1,1)"><g><path fill="none" stroke="none"/><text fill="#000000" stroke="none" font-family="Arial" font-size="13px" font-style="normal" font-weight="normal" text-decoration="none" x="556.885009765625" y="313.5">1</text></g></g></g></svg>